<?xml version="1.0" standalone="no"?>
<!DOCTYPE svg PUBLIC "-//W3C//DTD SVG 20010904//EN"
 "http://www.w3.org/TR/2001/REC-SVG-20010904/DTD/svg10.dtd">
<svg version="1.0" xmlns="http://www.w3.org/2000/svg"
 width="109.000000pt" height="108.000000pt" viewBox="0 0 109.000000 108.000000"
 preserveAspectRatio="xMidYMid meet">

<g transform="translate(0.000000,108.000000) scale(0.100000,-0.100000)"
fill="#000000" stroke="none">
<path d="M485 724 c-82 -30 -160 -137 -135 -185 6 -10 10 -29 10 -44 0 -14 11
-47 24 -73 21 -41 31 -49 77 -66 30 -10 79 -20 109 -22 52 -4 57 -2 96 33 23
21 47 49 54 62 13 26 10 25 -45 -14 -63 -44 -151 -58 -204 -31 -33 18 -86 76
-96 105 -3 11 -1 46 4 78 8 42 20 66 44 91 39 41 77 62 112 62 14 0 25 5 25
10 0 14 -27 11 -75 -6z"/>
<path d="M580 721 c0 -5 20 -19 44 -31 53 -25 96 -66 96 -90 0 -10 6 -23 14
-29 11 -9 12 -5 6 26 -10 51 -38 98 -71 117 -29 17 -89 22 -89 7z"/>
<path d="M488 631 c-29 -17 -40 -48 -13 -37 19 7 19 7 -5 -83 -10 -41 -17 -78
-14 -83 13 -21 34 -4 45 35 7 23 14 44 16 46 1 2 21 -17 44 -42 22 -26 47 -47
54 -47 28 0 24 19 -13 56 -28 28 -33 38 -22 42 44 14 73 67 52 98 -22 34 -98
42 -144 15z m110 -47 c2 -14 -5 -24 -23 -32 -43 -20 -56 -16 -49 16 10 40 13
43 42 40 18 -2 28 -10 30 -24z"/>
</g>
</svg>
